<svg width="799" height="544" viewBox="0 0 799 544" fill="none" xmlns="http://www.w3.org/2000/svg">
<g clip-path="url(#clip0)">
<path d="M670.92 0H0V360.901H670.92V0Z" fill="#3F3D56"/>
<path d="M127.203 50.8811H121.286V60.3473H127.203V50.8811Z" fill="#39C1B4"/>
<path d="M147.318 48.5145H141.402V57.9808H147.318V48.5145Z" fill="#39C1B4"/>
<path d="M157.968 48.5145H152.052V57.9808H157.968V48.5145Z" fill="#39C1B4"/>
<path d="M157.968 76.9132H152.052V86.3795H157.968V76.9132Z" fill="#39C1B4"/>
<path d="M169.801 62.7139H163.884V72.1801H169.801V62.7139Z" fill="#39C1B4"/>
<path d="M169.801 78.0965H163.884V87.5628H169.801V78.0965Z" fill="#39C1B4"/>
<path d="M157.968 107.679H152.052V117.145H157.968V107.679Z" fill="#39C1B4"/>
<path d="M169.801 123.061H163.884V132.527H169.801V123.061Z" fill="#39C1B4"/>
<path d="M157.968 181.042H152.052V190.508H157.968V181.042Z" fill="#39C1B4"/>
<path d="M147.318 123.061H141.402V132.527H147.318V123.061Z" fill="#39C1B4"/>
<path d="M127.203 66.2637H121.286V75.73H127.203V66.2637Z" fill="#39C1B4"/>
<path d="M127.203 214.174H121.286V223.64H127.203V214.174Z" fill="#39C1B4"/>
<path d="M127.203 244.939H121.286V254.405H127.203V244.939Z" fill="#39C1B4"/>
<path d="M127.203 260.322H121.286V269.788H127.203V260.322Z" fill="#39C1B4"/>
<path d="M127.203 82.8297H118.92V84.0129H127.203V82.8297Z" fill="#39C1B4"/>
<path d="M159.151 97.029H150.868V98.2123H159.151V97.029Z" fill="#39C1B4"/>
<path d="M127.203 158.56H118.92V159.743H127.203V158.56Z" fill="#39C1B4"/>
<path d="M127.203 171.576H118.92V172.759H127.203V171.576Z" fill="#39C1B4"/>
<path d="M159.151 247.306H150.868V248.489H159.151V247.306Z" fill="#39C1B4"/>
<path d="M149.685 275.704H141.402V276.888H149.685V275.704Z" fill="#39C1B4"/>
<path d="M121.286 93.4795V95.8457H123.653V100.579H121.286V102.945H127.203V93.4795H121.286Z" fill="#39C1B4"/>
<path d="M141.402 76.9135V79.2798H143.769V84.013H141.402V86.3792H147.319V76.9135H141.402Z" fill="#39C1B4"/>
<path d="M163.885 92.2956V94.6626H166.251V99.3959H163.885V101.762H169.801V92.2956H163.885Z" fill="#39C1B4"/>
<path d="M163.885 138.444V140.81H166.251V145.544H163.885V147.91H169.801V138.444H163.885Z" fill="#39C1B4"/>
<path d="M163.885 153.826V156.193H166.251V160.927H163.885V163.293H169.801V153.826H163.885Z" fill="#39C1B4"/>
<path d="M163.885 106.495V108.862H166.251V113.595H163.885V115.962H169.801V106.495H163.885Z" fill="#39C1B4"/>
<path d="M152.051 62.7138V65.0808H154.418V69.8133H152.051V72.1803H157.968V62.7138H152.051Z" fill="#39C1B4"/>
<path d="M157.968 138.444H152.052V147.91H157.968V138.444Z" fill="#39C1B4"/>
<path d="M157.968 166.843H152.052V176.309H157.968V166.843Z" fill="#39C1B4"/>
<path d="M152.051 152.643V155.009H154.418V159.743H152.051V162.11H157.968V152.643H152.051Z" fill="#39C1B4"/>
<path d="M141.402 92.2956V94.6626H143.769V99.3959H141.402V101.762H147.319V92.2956H141.402Z" fill="#39C1B4"/>
<path d="M141.402 107.678V110.045H143.769V114.778H141.402V117.145H147.319V107.678H141.402Z" fill="#39C1B4"/>
<path d="M147.318 153.826H141.402V163.293H147.318V153.826Z" fill="#39C1B4"/>
<path d="M141.402 138.444V140.81H143.769V145.544H141.402V147.91H147.319V138.444H141.402Z" fill="#39C1B4"/>
<path d="M147.318 184.592H141.402V194.058H147.318V184.592Z" fill="#39C1B4"/>
<path d="M141.402 169.209V171.575H143.769V176.309H141.402V178.676H147.319V169.209H141.402Z" fill="#39C1B4"/>
<path d="M147.318 215.357H141.402V224.823H147.318V215.357Z" fill="#39C1B4"/>
<path d="M157.968 212.991H152.052V222.457H157.968V212.991Z" fill="#39C1B4"/>
<path d="M141.402 199.974V202.341H143.769V207.074H141.402V209.441H147.319V199.974H141.402Z" fill="#39C1B4"/>
<path d="M163.885 199.974V202.341H166.251V207.074H163.885V209.441H169.801V199.974H163.885Z" fill="#39C1B4"/>
<path d="M230.148 62.7139H224.232V72.1801H230.148V62.7139Z" fill="#39C1B4"/>
<path d="M230.148 78.0965H224.232V87.5628H230.148V78.0965Z" fill="#39C1B4"/>
<path d="M230.148 123.061H224.232V132.527H230.148V123.061Z" fill="#39C1B4"/>
<path d="M224.231 92.2956V94.6626H226.598V99.3959H224.231V101.762H230.148V92.2956H224.231Z" fill="#39C1B4"/>
<path d="M224.231 138.444V140.81H226.598V145.544H224.231V147.91H230.148V138.444H224.231Z" fill="#39C1B4"/>
<path d="M224.231 153.826V156.193H226.598V160.927H224.231V163.293H230.148V153.826H224.231Z" fill="#39C1B4"/>
<path d="M224.231 106.495V108.862H226.598V113.595H224.231V115.962H230.148V106.495H224.231Z" fill="#39C1B4"/>
<path d="M224.231 199.974V202.341H226.598V207.074H224.231V209.441H230.148V199.974H224.231Z" fill="#39C1B4"/>
<path d="M147.318 246.122H141.402V255.589H147.318V246.122Z" fill="#39C1B4"/>
<path d="M157.968 228.373H152.052V237.839H157.968V228.373Z" fill="#39C1B4"/>
<path d="M147.318 286.354H141.402V295.82H147.318V286.354Z" fill="#39C1B4"/>
<path d="M157.968 257.955H152.052V267.421H157.968V257.955Z" fill="#39C1B4"/>
<path d="M141.402 230.74V233.106H143.769V237.839H141.402V240.206H147.319V230.74H141.402Z" fill="#39C1B4"/>
<path d="M141.402 302.92V305.286H143.769V310.02H141.402V312.386H147.319V302.92H141.402Z" fill="#39C1B4"/>
<path d="M212.399 48.5145H206.482V57.9808H212.399V48.5145Z" fill="#39C1B4"/>
<path d="M212.399 123.061H206.482V132.527H212.399V123.061Z" fill="#39C1B4"/>
<path d="M214.765 275.704H206.482V276.888H214.765V275.704Z" fill="#39C1B4"/>
<path d="M206.482 76.9135V79.2798H208.849V84.013H206.482V86.3792H212.399V76.9135H206.482Z" fill="#39C1B4"/>
<path d="M206.482 92.2956V94.6626H208.849V99.3959H206.482V101.762H212.399V92.2956H206.482Z" fill="#39C1B4"/>
<path d="M206.482 107.678V110.045H208.849V114.778H206.482V117.145H212.399V107.678H206.482Z" fill="#39C1B4"/>
<path d="M212.399 153.826H206.482V163.293H212.399V153.826Z" fill="#39C1B4"/>
<path d="M206.482 138.444V140.81H208.849V145.544H206.482V147.91H212.399V138.444H206.482Z" fill="#39C1B4"/>
<path d="M212.399 184.592H206.482V194.058H212.399V184.592Z" fill="#39C1B4"/>
<path d="M206.482 169.209V171.575H208.849V176.309H206.482V178.676H212.399V169.209H206.482Z" fill="#39C1B4"/>
<path d="M212.399 215.357H206.482V224.823H212.399V215.357Z" fill="#39C1B4"/>
<path d="M206.482 199.974V202.341H208.849V207.074H206.482V209.441H212.399V199.974H206.482Z" fill="#39C1B4"/>
<path d="M212.399 246.122H206.482V255.589H212.399V246.122Z" fill="#39C1B4"/>
<path d="M212.399 286.354H206.482V295.82H212.399V286.354Z" fill="#39C1B4"/>
<path d="M206.482 230.74V233.106H208.849V237.839H206.482V240.206H212.399V230.74H206.482Z" fill="#39C1B4"/>
<path d="M206.482 302.92V305.286H208.849V310.02H206.482V312.386H212.399V302.92H206.482Z" fill="#39C1B4"/>
<path d="M240.798 48.5145H234.881V57.9808H240.798V48.5145Z" fill="#39C1B4"/>
<path d="M240.798 123.061H234.881V132.527H240.798V123.061Z" fill="#39C1B4"/>
<path d="M243.164 275.704H234.881V276.888H243.164V275.704Z" fill="#39C1B4"/>
<path d="M234.881 76.9135V79.2798H237.248V84.013H234.881V86.3792H240.797V76.9135H234.881Z" fill="#39C1B4"/>
<path d="M234.881 92.2956V94.6626H237.248V99.3959H234.881V101.762H240.797V92.2956H234.881Z" fill="#39C1B4"/>
<path d="M234.881 107.678V110.045H237.248V114.778H234.881V117.145H240.797V107.678H234.881Z" fill="#39C1B4"/>
<path d="M240.798 153.826H234.881V163.293H240.798V153.826Z" fill="#39C1B4"/>
<path d="M234.881 138.444V140.81H237.248V145.544H234.881V147.91H240.797V138.444H234.881Z" fill="#39C1B4"/>
<path d="M240.798 184.592H234.881V194.058H240.798V184.592Z" fill="#39C1B4"/>
<path d="M234.881 169.209V171.575H237.248V176.309H234.881V178.676H240.797V169.209H234.881Z" fill="#39C1B4"/>
<path d="M240.798 215.357H234.881V224.823H240.798V215.357Z" fill="#39C1B4"/>
<path d="M234.881 199.974V202.341H237.248V207.074H234.881V209.441H240.797V199.974H234.881Z" fill="#39C1B4"/>
<path d="M240.798 246.122H234.881V255.589H240.798V246.122Z" fill="#39C1B4"/>
<path d="M240.798 286.354H234.881V295.82H240.798V286.354Z" fill="#39C1B4"/>
<path d="M234.881 230.74V233.106H237.248V237.839H234.881V240.206H240.797V230.74H234.881Z" fill="#39C1B4"/>
<path d="M234.881 302.92V305.286H237.248V310.02H234.881V312.386H240.797V302.92H234.881Z" fill="#39C1B4"/>
<path d="M152.051 286.354V288.72H154.418V293.454H152.051V295.82H157.968V286.354H152.051Z" fill="#39C1B4"/>
<path d="M152.051 301.737V304.103H154.418V308.836H152.051V311.203H157.968V301.737H152.051Z" fill="#39C1B4"/>
<path d="M121.286 123.061V125.428H123.653V130.161H121.286V132.528H127.203V123.061H121.286Z" fill="#39C1B4"/>
<path d="M121.286 183.409V185.775H123.653V190.508H121.286V192.875H127.203V183.409H121.286Z" fill="#39C1B4"/>
<path d="M121.286 198.791V201.158H123.653V205.891H121.286V208.257H127.203V198.791H121.286Z" fill="#39C1B4"/>
<path d="M121.286 229.557V231.923H123.653V236.656H121.286V239.022H127.203V229.557H121.286Z" fill="#39C1B4"/>
<path d="M121.286 273.337V275.705H123.653V280.438H121.286V282.804H127.203V273.337H121.286Z" fill="#39C1B4"/>
<path d="M121.286 286.354V288.72H123.653V293.454H121.286V295.82H127.203V286.354H121.286Z" fill="#39C1B4"/>
<path d="M188.733 50.8811H182.817V60.3473H188.733V50.8811Z" fill="#39C1B4"/>
<path d="M188.733 66.2637H182.817V75.73H188.733V66.2637Z" fill="#39C1B4"/>
<path d="M188.733 82.8297H180.45V84.0129H188.733V82.8297Z" fill="#39C1B4"/>
<path d="M188.733 158.56H180.45V159.743H188.733V158.56Z" fill="#39C1B4"/>
<path d="M188.733 171.576H180.45V172.759H188.733V171.576Z" fill="#39C1B4"/>
<path d="M182.817 93.4795V95.8457H185.183V100.579H182.817V102.945H188.733V93.4795H182.817Z" fill="#39C1B4"/>
<path d="M182.817 123.061V125.428H185.183V130.161H182.817V132.528H188.733V123.061H182.817Z" fill="#39C1B4"/>
<path d="M182.817 183.409V185.775H185.183V190.508H182.817V192.875H188.733V183.409H182.817Z" fill="#39C1B4"/>
<path d="M256.18 153.826H250.264V163.293H256.18V153.826Z" fill="#39C1B4"/>
<path d="M256.18 169.209H250.264V178.675H256.18V169.209Z" fill="#39C1B4"/>
<path d="M256.18 185.775H247.897V186.958H256.18V185.775Z" fill="#39C1B4"/>
<path d="M256.18 261.505H247.897V262.688H256.18V261.505Z" fill="#39C1B4"/>
<path d="M256.18 274.521H247.897V275.704H256.18V274.521Z" fill="#39C1B4"/>
<path d="M250.264 196.425V198.791H252.63V203.524H250.264V205.891H256.18V196.425H250.264Z" fill="#39C1B4"/>
<path d="M250.264 226.007V228.374H252.63V233.106H250.264V235.473H256.18V226.007H250.264Z" fill="#39C1B4"/>
<path d="M250.264 286.354V288.72H252.63V293.454H250.264V295.82H256.18V286.354H250.264Z" fill="#39C1B4"/>
<path d="M275.113 50.8811H269.196V60.3473H275.113V50.8811Z" fill="#39C1B4"/>
<path d="M295.229 48.5145H289.312V57.9808H295.229V48.5145Z" fill="#39C1B4"/>
<path d="M305.878 48.5145H299.962V57.9808H305.878V48.5145Z" fill="#39C1B4"/>
<path d="M305.878 76.9132H299.962V86.3795H305.878V76.9132Z" fill="#39C1B4"/>
<path d="M317.711 62.7139H311.794V72.1801H317.711V62.7139Z" fill="#39C1B4"/>
<path d="M317.711 78.0965H311.794V87.5628H317.711V78.0965Z" fill="#39C1B4"/>
<path d="M305.878 107.679H299.962V117.145H305.878V107.679Z" fill="#39C1B4"/>
<path d="M317.711 123.061H311.794V132.527H317.711V123.061Z" fill="#39C1B4"/>
<path d="M305.878 181.042H299.962V190.508H305.878V181.042Z" fill="#39C1B4"/>
<path d="M295.229 123.061H289.312V132.527H295.229V123.061Z" fill="#39C1B4"/>
<path d="M275.113 66.2637H269.196V75.73H275.113V66.2637Z" fill="#39C1B4"/>
<path d="M275.113 214.174H269.196V223.64H275.113V214.174Z" fill="#39C1B4"/>
<path d="M275.113 244.939H269.196V254.405H275.113V244.939Z" fill="#39C1B4"/>
<path d="M275.113 260.322H269.196V269.788H275.113V260.322Z" fill="#39C1B4"/>
<path d="M275.113 82.8297H266.83V84.0129H275.113V82.8297Z" fill="#39C1B4"/>
<path d="M307.061 97.029H298.778V98.2123H307.061V97.029Z" fill="#39C1B4"/>
<path d="M275.113 158.56H266.83V159.743H275.113V158.56Z" fill="#39C1B4"/>
<path d="M275.113 171.576H266.83V172.759H275.113V171.576Z" fill="#39C1B4"/>
<path d="M307.061 247.306H298.778V248.489H307.061V247.306Z" fill="#39C1B4"/>
<path d="M297.595 275.704H289.312V276.888H297.595V275.704Z" fill="#39C1B4"/>
<path d="M269.196 93.4795V95.8457H271.563V100.579H269.196V102.945H275.113V93.4795H269.196Z" fill="#39C1B4"/>
<path d="M289.312 76.9135V79.2798H291.678V84.013H289.312V86.3792H295.229V76.9135H289.312Z" fill="#39C1B4"/>
<path d="M311.795 92.2956V94.6626H314.161V99.3959H311.795V101.762H317.711V92.2956H311.795Z" fill="#39C1B4"/>
<path d="M311.795 138.444V140.81H314.161V145.544H311.795V147.91H317.711V138.444H311.795Z" fill="#39C1B4"/>
<path d="M311.795 153.826V156.193H314.161V160.927H311.795V163.293H317.711V153.826H311.795Z" fill="#39C1B4"/>
<path d="M311.795 106.495V108.862H314.161V113.595H311.795V115.962H317.711V106.495H311.795Z" fill="#39C1B4"/>
<path d="M299.962 62.7138V65.0808H302.328V69.8133H299.962V72.1803H305.878V62.7138H299.962Z" fill="#39C1B4"/>
<path d="M305.878 138.444H299.962V147.91H305.878V138.444Z" fill="#39C1B4"/>
<path d="M305.878 166.843H299.962V176.309H305.878V166.843Z" fill="#39C1B4"/>
<path d="M299.962 152.643V155.009H302.328V159.743H299.962V162.11H305.878V152.643H299.962Z" fill="#39C1B4"/>
<path d="M289.312 92.2956V94.6626H291.678V99.3959H289.312V101.762H295.229V92.2956H289.312Z" fill="#39C1B4"/>
<path d="M289.312 107.678V110.045H291.678V114.778H289.312V117.145H295.229V107.678H289.312Z" fill="#39C1B4"/>
<path d="M295.229 153.826H289.312V163.293H295.229V153.826Z" fill="#39C1B4"/>
<path d="M289.312 138.444V140.81H291.678V145.544H289.312V147.91H295.229V138.444H289.312Z" fill="#39C1B4"/>
<path d="M295.229 184.592H289.312V194.058H295.229V184.592Z" fill="#39C1B4"/>
<path d="M289.312 169.209V171.575H291.678V176.309H289.312V178.676H295.229V169.209H289.312Z" fill="#39C1B4"/>
<path d="M295.229 215.357H289.312V224.823H295.229V215.357Z" fill="#39C1B4"/>
<path d="M305.878 212.991H299.962V222.457H305.878V212.991Z" fill="#39C1B4"/>
<path d="M289.312 199.974V202.341H291.678V207.074H289.312V209.441H295.229V199.974H289.312Z" fill="#39C1B4"/>
<path d="M311.795 199.974V202.341H314.161V207.074H311.795V209.441H317.711V199.974H311.795Z" fill="#39C1B4"/>
<path d="M378.058 62.7139H372.142V72.1801H378.058V62.7139Z" fill="#39C1B4"/>
<path d="M378.058 78.0965H372.142V87.5628H378.058V78.0965Z" fill="#39C1B4"/>
<path d="M378.058 123.061H372.142V132.527H378.058V123.061Z" fill="#39C1B4"/>
<path d="M372.142 92.2956V94.6626H374.508V99.3959H372.142V101.762H378.059V92.2956H372.142Z" fill="#39C1B4"/>
<path d="M372.142 138.444V140.81H374.508V145.544H372.142V147.91H378.059V138.444H372.142Z" fill="#39C1B4"/>
<path d="M372.142 153.826V156.193H374.508V160.927H372.142V163.293H378.059V153.826H372.142Z" fill="#39C1B4"/>
<path d="M372.142 106.495V108.862H374.508V113.595H372.142V115.962H378.059V106.495H372.142Z" fill="#39C1B4"/>
<path d="M372.142 199.974V202.341H374.508V207.074H372.142V209.441H378.059V199.974H372.142Z" fill="#39C1B4"/>
<path d="M295.229 246.122H289.312V255.589H295.229V246.122Z" fill="#39C1B4"/>
<path d="M305.878 228.373H299.962V237.839H305.878V228.373Z" fill="#39C1B4"/>
<path d="M295.229 286.354H289.312V295.82H295.229V286.354Z" fill="#39C1B4"/>
<path d="M305.878 257.955H299.962V267.421H305.878V257.955Z" fill="#39C1B4"/>
<path d="M289.312 230.74V233.106H291.678V237.839H289.312V240.206H295.229V230.74H289.312Z" fill="#39C1B4"/>
<path d="M289.312 302.92V305.286H291.678V310.02H289.312V312.386H295.229V302.92H289.312Z" fill="#39C1B4"/>
<path d="M360.309 48.5145H354.393V57.9808H360.309V48.5145Z" fill="#39C1B4"/>
<path d="M360.309 123.061H354.393V132.527H360.309V123.061Z" fill="#39C1B4"/>
<path d="M362.676 275.704H354.393V276.888H362.676V275.704Z" fill="#39C1B4"/>
<path d="M354.392 76.9135V79.2798H356.759V84.013H354.392V86.3792H360.309V76.9135H354.392Z" fill="#39C1B4"/>
<path d="M354.392 92.2956V94.6626H356.759V99.3959H354.392V101.762H360.309V92.2956H354.392Z" fill="#39C1B4"/>
<path d="M354.392 107.678V110.045H356.759V114.778H354.392V117.145H360.309V107.678H354.392Z" fill="#39C1B4"/>
<path d="M360.309 153.826H354.393V163.293H360.309V153.826Z" fill="#39C1B4"/>
<path d="M354.392 138.444V140.81H356.759V145.544H354.392V147.91H360.309V138.444H354.392Z" fill="#39C1B4"/>
<path d="M360.309 184.592H354.393V194.058H360.309V184.592Z" fill="#39C1B4"/>
<path d="M354.392 169.209V171.575H356.759V176.309H354.392V178.676H360.309V169.209H354.392Z" fill="#39C1B4"/>
<path d="M360.309 215.357H354.393V224.823H360.309V215.357Z" fill="#39C1B4"/>
<path d="M354.392 199.974V202.341H356.759V207.074H354.392V209.441H360.309V199.974H354.392Z" fill="#39C1B4"/>
<path d="M360.309 246.122H354.393V255.589H360.309V246.122Z" fill="#39C1B4"/>
<path d="M360.309 286.354H354.393V295.82H360.309V286.354Z" fill="#39C1B4"/>
<path d="M354.392 230.74V233.106H356.759V237.839H354.392V240.206H360.309V230.74H354.392Z" fill="#39C1B4"/>
<path d="M354.392 302.92V305.286H356.759V310.02H354.392V312.386H360.309V302.92H354.392Z" fill="#39C1B4"/>
<path d="M388.708 48.5145H382.791V57.9808H388.708V48.5145Z" fill="#39C1B4"/>
<path d="M388.708 123.061H382.791V132.527H388.708V123.061Z" fill="#39C1B4"/>
<path d="M391.074 275.704H382.791V276.888H391.074V275.704Z" fill="#39C1B4"/>
<path d="M382.791 76.9135V79.2798H385.158V84.013H382.791V86.3792H388.707V76.9135H382.791Z" fill="#39C1B4"/>
<path d="M382.791 92.2956V94.6626H385.158V99.3959H382.791V101.762H388.707V92.2956H382.791Z" fill="#39C1B4"/>
<path d="M382.791 107.678V110.045H385.158V114.778H382.791V117.145H388.707V107.678H382.791Z" fill="#39C1B4"/>
<path d="M388.708 153.826H382.791V163.293H388.708V153.826Z" fill="#39C1B4"/>
<path d="M382.791 138.444V140.81H385.158V145.544H382.791V147.91H388.707V138.444H382.791Z" fill="#39C1B4"/>
<path d="M388.708 184.592H382.791V194.058H388.708V184.592Z" fill="#39C1B4"/>
<path d="M382.791 169.209V171.575H385.158V176.309H382.791V178.676H388.707V169.209H382.791Z" fill="#39C1B4"/>
<path d="M388.708 215.357H382.791V224.823H388.708V215.357Z" fill="#39C1B4"/>
<path d="M382.791 199.974V202.341H385.158V207.074H382.791V209.441H388.707V199.974H382.791Z" fill="#39C1B4"/>
<path d="M388.708 246.122H382.791V255.589H388.708V246.122Z" fill="#39C1B4"/>
<path d="M388.708 286.354H382.791V295.82H388.708V286.354Z" fill="#39C1B4"/>
<path d="M382.791 230.74V233.106H385.158V237.839H382.791V240.206H388.707V230.74H382.791Z" fill="#39C1B4"/>
<path d="M382.791 302.92V305.286H385.158V310.02H382.791V312.386H388.707V302.92H382.791Z" fill="#39C1B4"/>
<path d="M299.962 286.354V288.72H302.328V293.454H299.962V295.82H305.878V286.354H299.962Z" fill="#39C1B4"/>
<path d="M299.962 301.737V304.103H302.328V308.836H299.962V311.203H305.878V301.737H299.962Z" fill="#39C1B4"/>
<path d="M269.196 123.061V125.428H271.563V130.161H269.196V132.528H275.113V123.061H269.196Z" fill="#39C1B4"/>
<path d="M269.196 183.409V185.775H271.563V190.508H269.196V192.875H275.113V183.409H269.196Z" fill="#39C1B4"/>
<path d="M269.196 198.791V201.158H271.563V205.891H269.196V208.257H275.113V198.791H269.196Z" fill="#39C1B4"/>
<path d="M269.196 229.557V231.923H271.563V236.656H269.196V239.022H275.113V229.557H269.196Z" fill="#39C1B4"/>
<path d="M269.196 273.337V275.705H271.563V280.438H269.196V282.804H275.113V273.337H269.196Z" fill="#39C1B4"/>
<path d="M269.196 286.354V288.72H271.563V293.454H269.196V295.82H275.113V286.354H269.196Z" fill="#39C1B4"/>
<path d="M336.643 50.8811H330.727V60.3473H336.643V50.8811Z" fill="#39C1B4"/>
<path d="M336.643 66.2637H330.727V75.73H336.643V66.2637Z" fill="#39C1B4"/>
<path d="M336.643 82.8297H328.36V84.0129H336.643V82.8297Z" fill="#39C1B4"/>
<path d="M336.643 158.56H328.36V159.743H336.643V158.56Z" fill="#39C1B4"/>
<path d="M336.643 171.576H328.36V172.759H336.643V171.576Z" fill="#39C1B4"/>
<path d="M330.727 93.4795V95.8457H333.094V100.579H330.727V102.945H336.643V93.4795H330.727Z" fill="#39C1B4"/>
<path d="M330.727 123.061V125.428H333.094V130.161H330.727V132.528H336.643V123.061H330.727Z" fill="#39C1B4"/>
<path d="M330.727 183.409V185.775H333.094V190.508H330.727V192.875H336.643V183.409H330.727Z" fill="#39C1B4"/>
<path d="M404.09 153.826H398.174V163.293H404.09V153.826Z" fill="#39C1B4"/>
<path d="M404.09 169.209H398.174V178.675H404.09V169.209Z" fill="#39C1B4"/>
<path d="M404.09 185.775H395.807V186.958H404.09V185.775Z" fill="#39C1B4"/>
<path d="M404.09 261.505H395.807V262.688H404.09V261.505Z" fill="#39C1B4"/>
<path d="M404.09 274.521H395.807V275.704H404.09V274.521Z" fill="#39C1B4"/>
<path d="M398.174 196.425V198.791H400.541V203.524H398.174V205.891H404.09V196.425H398.174Z" fill="#39C1B4"/>
<path d="M398.174 226.007V228.374H400.541V233.106H398.174V235.473H404.09V226.007H398.174Z" fill="#39C1B4"/>
<path d="M398.174 286.354V288.72H400.541V293.454H398.174V295.82H404.09V286.354H398.174Z" fill="#39C1B4"/>
<path d="M423.023 50.8811H417.106V60.3473H423.023V50.8811Z" fill="#39C1B4"/>
<path d="M443.139 48.5145H437.222V57.9808H443.139V48.5145Z" fill="#39C1B4"/>
<path d="M453.788 48.5145H447.872V57.9808H453.788V48.5145Z" fill="#39C1B4"/>
<path d="M453.788 76.9132H447.872V86.3795H453.788V76.9132Z" fill="#39C1B4"/>
<path d="M465.621 62.7139H459.705V72.1801H465.621V62.7139Z" fill="#39C1B4"/>
<path d="M465.621 78.0965H459.705V87.5628H465.621V78.0965Z" fill="#39C1B4"/>
<path d="M453.788 107.679H447.872V117.145H453.788V107.679Z" fill="#39C1B4"/>
<path d="M465.621 123.061H459.705V132.527H465.621V123.061Z" fill="#39C1B4"/>
<path d="M453.788 181.042H447.872V190.508H453.788V181.042Z" fill="#39C1B4"/>
<path d="M443.139 123.061H437.222V132.527H443.139V123.061Z" fill="#39C1B4"/>
<path d="M423.023 66.2637H417.106V75.73H423.023V66.2637Z" fill="#39C1B4"/>
<path d="M423.023 214.174H417.106V223.64H423.023V214.174Z" fill="#39C1B4"/>
<path d="M423.023 244.939H417.106V254.405H423.023V244.939Z" fill="#39C1B4"/>
<path d="M423.023 260.322H417.106V269.788H423.023V260.322Z" fill="#39C1B4"/>
<path d="M423.023 82.8297H414.74V84.0129H423.023V82.8297Z" fill="#39C1B4"/>
<path d="M454.971 97.029H446.688V98.2123H454.971V97.029Z" fill="#39C1B4"/>
<path d="M423.023 158.56H414.74V159.743H423.023V158.56Z" fill="#39C1B4"/>
<path d="M423.023 171.576H414.74V172.759H423.023V171.576Z" fill="#39C1B4"/>
<path d="M454.971 247.306H446.688V248.489H454.971V247.306Z" fill="#39C1B4"/>
<path d="M445.505 275.704H437.222V276.888H445.505V275.704Z" fill="#39C1B4"/>
<path d="M417.106 93.4795V95.8457H419.473V100.579H417.106V102.945H423.023V93.4795H417.106Z" fill="#39C1B4"/>
<path d="M437.222 76.9135V79.2798H439.588V84.013H437.222V86.3792H443.139V76.9135H437.222Z" fill="#39C1B4"/>
<path d="M459.704 92.2956V94.6626H462.071V99.3959H459.704V101.762H465.621V92.2956H459.704Z" fill="#39C1B4"/>
<path d="M459.704 138.444V140.81H462.071V145.544H459.704V147.91H465.621V138.444H459.704Z" fill="#39C1B4"/>
<path d="M459.704 153.826V156.193H462.071V160.927H459.704V163.293H465.621V153.826H459.704Z" fill="#39C1B4"/>
<path d="M459.704 106.495V108.862H462.071V113.595H459.704V115.962H465.621V106.495H459.704Z" fill="#39C1B4"/>
<path d="M447.872 62.7138V65.0808H450.238V69.8133H447.872V72.1803H453.788V62.7138H447.872Z" fill="#39C1B4"/>
<path d="M453.788 138.444H447.872V147.91H453.788V138.444Z" fill="#39C1B4"/>
<path d="M453.788 166.843H447.872V176.309H453.788V166.843Z" fill="#39C1B4"/>
<path d="M447.872 152.643V155.009H450.238V159.743H447.872V162.11H453.788V152.643H447.872Z" fill="#39C1B4"/>
<path d="M437.222 92.2956V94.6626H439.588V99.3959H437.222V101.762H443.139V92.2956H437.222Z" fill="#39C1B4"/>
<path d="M437.222 107.678V110.045H439.588V114.778H437.222V117.145H443.139V107.678H437.222Z" fill="#39C1B4"/>
<path d="M443.139 153.826H437.222V163.293H443.139V153.826Z" fill="#39C1B4"/>
<path d="M437.222 138.444V140.81H439.588V145.544H437.222V147.91H443.139V138.444H437.222Z" fill="#39C1B4"/>
<path d="M443.139 184.592H437.222V194.058H443.139V184.592Z" fill="#39C1B4"/>
<path d="M437.222 169.209V171.575H439.588V176.309H437.222V178.676H443.139V169.209H437.222Z" fill="#39C1B4"/>
<path d="M443.139 215.357H437.222V224.823H443.139V215.357Z" fill="#39C1B4"/>
<path d="M453.788 212.991H447.872V222.457H453.788V212.991Z" fill="#39C1B4"/>
<path d="M437.222 199.974V202.341H439.588V207.074H437.222V209.441H443.139V199.974H437.222Z" fill="#39C1B4"/>
<path d="M459.704 199.974V202.341H462.071V207.074H459.704V209.441H465.621V199.974H459.704Z" fill="#39C1B4"/>
<path d="M525.968 62.7139H520.052V72.1801H525.968V62.7139Z" fill="#39C1B4"/>
<path d="M525.968 78.0965H520.052V87.5628H525.968V78.0965Z" fill="#39C1B4"/>
<path d="M525.968 123.061H520.052V132.527H525.968V123.061Z" fill="#39C1B4"/>
<path d="M520.052 92.2956V94.6626H522.418V99.3959H520.052V101.762H525.968V92.2956H520.052Z" fill="#39C1B4"/>
<path d="M520.052 138.444V140.81H522.418V145.544H520.052V147.91H525.968V138.444H520.052Z" fill="#39C1B4"/>
<path d="M520.052 153.826V156.193H522.418V160.927H520.052V163.293H525.968V153.826H520.052Z" fill="#39C1B4"/>
<path d="M520.052 106.495V108.862H522.418V113.595H520.052V115.962H525.968V106.495H520.052Z" fill="#39C1B4"/>
<path d="M520.052 199.974V202.341H522.418V207.074H520.052V209.441H525.968V199.974H520.052Z" fill="#39C1B4"/>
<path d="M443.139 246.122H437.222V255.589H443.139V246.122Z" fill="#39C1B4"/>
<path d="M453.788 228.373H447.872V237.839H453.788V228.373Z" fill="#39C1B4"/>
<path d="M443.139 286.354H437.222V295.82H443.139V286.354Z" fill="#39C1B4"/>
<path d="M453.788 257.955H447.872V267.421H453.788V257.955Z" fill="#39C1B4"/>
<path d="M437.222 230.74V233.106H439.588V237.839H437.222V240.206H443.139V230.74H437.222Z" fill="#39C1B4"/>
<path d="M437.222 302.92V305.286H439.588V310.02H437.222V312.386H443.139V302.92H437.222Z" fill="#39C1B4"/>
<path d="M508.219 48.5145H502.303V57.9808H508.219V48.5145Z" fill="#39C1B4"/>
<path d="M508.219 123.061H502.303V132.527H508.219V123.061Z" fill="#39C1B4"/>
<path d="M510.586 275.704H502.303V276.888H510.586V275.704Z" fill="#39C1B4"/>
<path d="M502.303 76.9135V79.2798H504.669V84.013H502.303V86.3792H508.219V76.9135H502.303Z" fill="#39C1B4"/>
<path d="M502.303 92.2956V94.6626H504.669V99.3959H502.303V101.762H508.219V92.2956H502.303Z" fill="#39C1B4"/>
<path d="M502.303 107.678V110.045H504.669V114.778H502.303V117.145H508.219V107.678H502.303Z" fill="#39C1B4"/>
<path d="M508.219 153.826H502.303V163.293H508.219V153.826Z" fill="#39C1B4"/>
<path d="M502.303 138.444V140.81H504.669V145.544H502.303V147.91H508.219V138.444H502.303Z" fill="#39C1B4"/>
<path d="M508.219 184.592H502.303V194.058H508.219V184.592Z" fill="#39C1B4"/>
<path d="M502.303 169.209V171.575H504.669V176.309H502.303V178.676H508.219V169.209H502.303Z" fill="#39C1B4"/>
<path d="M508.219 215.357H502.303V224.823H508.219V215.357Z" fill="#39C1B4"/>
<path d="M502.303 199.974V202.341H504.669V207.074H502.303V209.441H508.219V199.974H502.303Z" fill="#39C1B4"/>
<path d="M508.219 246.122H502.303V255.589H508.219V246.122Z" fill="#39C1B4"/>
<path d="M508.219 286.354H502.303V295.82H508.219V286.354Z" fill="#39C1B4"/>
<path d="M502.303 230.74V233.106H504.669V237.839H502.303V240.206H508.219V230.74H502.303Z" fill="#39C1B4"/>
<path d="M502.303 302.92V305.286H504.669V310.02H502.303V312.386H508.219V302.92H502.303Z" fill="#39C1B4"/>
<path d="M536.618 48.5145H530.701V57.9808H536.618V48.5145Z" fill="#39C1B4"/>
<path d="M536.618 123.061H530.701V132.527H536.618V123.061Z" fill="#39C1B4"/>
<path d="M538.984 275.704H530.701V276.888H538.984V275.704Z" fill="#39C1B4"/>
<path d="M530.702 76.9135V79.2798H533.068V84.013H530.702V86.3792H536.618V76.9135H530.702Z" fill="#39C1B4"/>
<path d="M530.702 92.2956V94.6626H533.068V99.3959H530.702V101.762H536.618V92.2956H530.702Z" fill="#39C1B4"/>
<path d="M530.702 107.678V110.045H533.068V114.778H530.702V117.145H536.618V107.678H530.702Z" fill="#39C1B4"/>
<path d="M536.618 153.826H530.701V163.293H536.618V153.826Z" fill="#39C1B4"/>
<path d="M530.702 138.444V140.81H533.068V145.544H530.702V147.91H536.618V138.444H530.702Z" fill="#39C1B4"/>
<path d="M536.618 184.592H530.701V194.058H536.618V184.592Z" fill="#39C1B4"/>
<path d="M530.702 169.209V171.575H533.068V176.309H530.702V178.676H536.618V169.209H530.702Z" fill="#39C1B4"/>
<path d="M536.618 215.357H530.701V224.823H536.618V215.357Z" fill="#39C1B4"/>
<path d="M530.702 199.974V202.341H533.068V207.074H530.702V209.441H536.618V199.974H530.702Z" fill="#39C1B4"/>
<path d="M536.618 246.122H530.701V255.589H536.618V246.122Z" fill="#39C1B4"/>
<path d="M536.618 286.354H530.701V295.82H536.618V286.354Z" fill="#39C1B4"/>
<path d="M530.702 230.74V233.106H533.068V237.839H530.702V240.206H536.618V230.74H530.702Z" fill="#39C1B4"/>
<path d="M530.702 302.92V305.286H533.068V310.02H530.702V312.386H536.618V302.92H530.702Z" fill="#39C1B4"/>
<path d="M447.872 286.354V288.72H450.238V293.454H447.872V295.82H453.788V286.354H447.872Z" fill="#39C1B4"/>
<path d="M447.872 301.737V304.103H450.238V308.836H447.872V311.203H453.788V301.737H447.872Z" fill="#39C1B4"/>
<path d="M417.106 123.061V125.428H419.473V130.161H417.106V132.528H423.023V123.061H417.106Z" fill="#39C1B4"/>
<path d="M417.106 183.409V185.775H419.473V190.508H417.106V192.875H423.023V183.409H417.106Z" fill="#39C1B4"/>
<path d="M417.106 198.791V201.158H419.473V205.891H417.106V208.257H423.023V198.791H417.106Z" fill="#39C1B4"/>
<path d="M417.106 229.557V231.923H419.473V236.656H417.106V239.022H423.023V229.557H417.106Z" fill="#39C1B4"/>
<path d="M417.106 273.337V275.705H419.473V280.438H417.106V282.804H423.023V273.337H417.106Z" fill="#39C1B4"/>
<path d="M417.106 286.354V288.72H419.473V293.454H417.106V295.82H423.023V286.354H417.106Z" fill="#39C1B4"/>
<path d="M484.553 50.8811H478.637V60.3473H484.553V50.8811Z" fill="#39C1B4"/>
<path d="M484.553 66.2637H478.637V75.73H484.553V66.2637Z" fill="#39C1B4"/>
<path d="M484.553 82.8297H476.27V84.0129H484.553V82.8297Z" fill="#39C1B4"/>
<path d="M484.553 158.56H476.27V159.743H484.553V158.56Z" fill="#39C1B4"/>
<path d="M484.553 171.576H476.27V172.759H484.553V171.576Z" fill="#39C1B4"/>
<path d="M478.637 93.4795V95.8457H481.004V100.579H478.637V102.945H484.553V93.4795H478.637Z" fill="#39C1B4"/>
<path d="M478.637 123.061V125.428H481.004V130.161H478.637V132.528H484.553V123.061H478.637Z" fill="#39C1B4"/>
<path d="M478.637 183.409V185.775H481.004V190.508H478.637V192.875H484.553V183.409H478.637Z" fill="#39C1B4"/>
<path d="M552 153.826H546.084V163.293H552V153.826Z" fill="#39C1B4"/>
<path d="M552 169.209H546.084V178.675H552V169.209Z" fill="#39C1B4"/>
<path d="M552 185.775H543.717V186.958H552V185.775Z" fill="#39C1B4"/>
<path d="M552 261.505H543.717V262.688H552V261.505Z" fill="#39C1B4"/>
<path d="M552 274.521H543.717V275.704H552V274.521Z" fill="#39C1B4"/>
<path d="M546.084 196.425V198.791H548.451V203.524H546.084V205.891H552V196.425H546.084Z" fill="#39C1B4"/>
<path d="M546.084 226.007V228.374H548.451V233.106H546.084V235.473H552V226.007H546.084Z" fill="#39C1B4"/>
<path d="M546.084 286.354V288.72H548.451V293.454H546.084V295.82H552V286.354H546.084Z" fill="#39C1B4"/>
<path d="M799 541.746H164.421V543.705H799V541.746Z" fill="#2F2E41"/>
<path d="M295.588 310.034V349.906L300.956 374.442C300.956 374.442 300.189 389.777 300.956 394.378C301.722 398.979 300.189 406.646 295.588 406.646C290.988 406.646 288.687 418.148 288.687 418.148C288.687 418.148 287.154 422.748 283.32 423.515C279.486 424.282 279.486 423.515 279.486 423.515L276.419 431.183L212.778 473.355L225.046 504.026C225.046 504.026 244.215 497.125 245.748 494.824C247.282 492.524 260.317 497.891 260.317 492.524C260.317 487.157 262.617 473.355 267.218 472.588C271.818 471.821 310.157 454.186 310.157 454.186C310.157 454.186 330.093 431.95 331.626 423.515C333.16 415.081 340.061 391.311 340.061 391.311L359.23 423.515V487.923L356.163 522.428L389.9 517.827C389.9 517.827 386.833 496.358 389.9 493.291C392.967 490.224 397.568 453.419 394.501 448.818C391.434 444.218 396.035 423.515 394.501 420.448C392.967 417.381 393.734 395.145 389.9 389.011C386.067 382.876 363.064 320.002 363.064 320.002L295.588 310.034Z" fill="#2F2E41"/>
<path d="M360.763 520.894C360.763 520.894 349.262 540.063 356.93 542.364C364.597 544.664 379.166 542.364 380.699 542.364C382.233 542.364 409.836 543.131 409.836 543.131C409.836 543.131 428.239 539.297 428.239 533.929C428.239 528.562 416.737 528.562 412.903 527.795C409.07 527.028 385.3 517.827 385.3 517.827L360.763 520.894Z" fill="#2F2E41"/>
<path d="M216.299 474.22C216.299 474.22 194.138 471.285 195.074 479.235C196.011 487.186 203.913 499.64 204.522 501.047C204.935 502 209.778 514.065 212.861 521.754C215.089 527.39 218.437 532.517 222.703 536.823C225.717 539.835 229.002 542.251 231.157 541.317C236.082 539.184 231.511 528.63 230.691 524.807C229.87 520.985 228.866 495.516 228.866 495.516L216.299 474.22Z" fill="#2F2E41"/>
<path d="M370.348 183.134L394.884 126.393C394.884 126.393 392.584 121.026 387.217 121.793C387.217 121.793 379.933 103.007 366.131 103.007C366.131 103.007 345.428 91.5055 339.294 103.007C339.294 103.007 326.259 114.508 327.026 125.243C327.792 135.978 328.559 143.646 328.559 143.646C328.559 143.646 316.291 145.179 318.591 151.313C320.892 157.447 321.658 157.447 318.591 159.748L315.524 162.048C315.524 162.048 251.883 219.555 287.154 303.9L290.221 316.935V329.203C290.221 329.203 367.664 329.97 367.664 329.203C367.664 328.436 366.131 323.836 369.198 320.768C372.265 317.701 372.265 313.101 372.265 313.101C372.265 313.101 369.198 297.766 370.731 293.165C372.265 288.564 373.032 268.628 369.965 264.028C366.898 259.427 368.431 222.622 368.431 222.622L375.332 209.587L373.032 201.92L370.731 194.252L370.348 183.134Z" fill="#8985A8"/>
<path opacity="0.1" d="M363.83 336.871C363.83 336.871 354.629 311.567 355.396 306.967C356.163 302.366 353.862 293.165 353.862 293.165L350.795 231.057C350.795 231.057 363.83 175.85 334.693 166.649C334.693 166.649 327.321 169.866 321.28 180.218C315.306 182.879 308.057 189.613 306.323 206.52C303.256 236.424 317.058 313.101 323.959 326.136C330.859 339.171 335.46 348.372 335.46 348.372L342.673 345.166C342.97 345.757 343.128 346.072 343.128 346.072L363.83 336.871Z" fill="black"/>
<path d="M368.048 176.233C369.318 176.233 370.348 175.203 370.348 173.933C370.348 172.662 369.318 171.633 368.048 171.633C366.777 171.633 365.747 172.662 365.747 173.933C365.747 175.203 366.777 176.233 368.048 176.233Z" fill="#F2F2F2"/>
<path d="M368.814 173.933H367.281V209.971H368.814V173.933Z" fill="#3F3D56"/>
<path d="M340.444 339.554L346.578 352.589C346.578 352.589 360.38 347.989 360.38 345.688C360.38 343.388 354.246 333.42 354.246 333.42L340.444 339.554Z" fill="#FFB8B8"/>
<path d="M331.626 166.649C331.626 166.649 313.991 174.316 310.924 204.22C307.856 234.124 321.658 310.8 328.559 323.836C335.46 336.871 340.061 346.072 340.061 346.072L360.763 336.871C360.763 336.871 351.562 311.567 352.329 306.967C353.096 302.366 350.795 293.165 350.795 293.165L347.728 231.057C347.728 231.057 360.763 175.85 331.626 166.649Z" fill="#8985A8"/>
</g>
<defs>
<clipPath id="clip0">
<rect width="799" height="543.705" fill="white"/>
</clipPath>
</defs>
</svg>
