<svg width="58" height="58" viewBox="0 0 58 58" fill="none" xmlns="http://www.w3.org/2000/svg">
<path d="M24.1667 22.5548L37.0548 28.9879L24.1667 35.4453V22.5548V22.5548ZM58 12.0833V45.9167C58 52.5891 52.5915 58 45.9167 58H12.0833C5.41092 58 0 52.5891 0 45.9167V12.0833C0 5.41092 5.41092 0 12.0833 0H45.9167C52.5915 0 58 5.41092 58 12.0833ZM48.3333 29C48.285 19.0361 47.5528 15.225 41.2694 14.7973C35.4622 14.4009 22.5306 14.4033 16.733 14.7973C10.4545 15.225 9.715 19.0192 9.66667 29C9.715 38.9639 10.4473 42.775 16.7306 43.2028C22.5282 43.5967 35.4598 43.5991 41.267 43.2028C47.5455 42.775 48.285 38.9808 48.3333 29Z" fill="url(#paint0_linear)"/>
<defs>
<linearGradient id="paint0_linear" x1="29" y1="0" x2="29" y2="58" gradientUnits="userSpaceOnUse">
<stop stop-color="#39A7D2"/>
<stop offset="1" stop-color="#39C1B4"/>
</linearGradient>
</defs>
</svg>
